{"accessors" : [{"bufferView" : 0, "byteOffset" : 0, "componentType" : 5123, "count" : 34344, "type" : "SCALAR", "max" : [5839], "min" : [0]}, {"bufferView" : 1, "byteOffset" : 0, "componentType" : 5126, "count" : 5840, "type" : "VEC3", "max" : [3.02088236808777, 10.9597053527832, 7.46901941299438], "min" : [-2.87911915779114, 2.22872567176819, 4.95956039428711]}, {"bufferView" : 1, "byteOffset" : 12, "componentType" : 5126, "count" : 5840, "type" : "VEC2", "max" : [0.998040020465851, -0.00194999994710088], "min" : [0.00194999994710088, -0.784950017929077]}], "asset" : {"generator" : "Aspose.3D 20.2.1", "version" : "2.0"}, "buffers" : [{"uri" : "buffer.bin", "byteLength" : 185496}], "bufferViews" : [{"buffer" : 0, "byteOffset" : 0, "byteLength" : 68688, "target" : 34963}, {"buffer" : 0, "byteOffset" : 68692, "byteLength" : 116800, "byteStride" : 20, "target" : 34962}], "meshes" : [{"primitives" : [{"attributes" : {"POSITION" : 1, "TEXCOORD_0" : 2}, "indices" : 0, "mode" : 4}]}], "nodes" : [{"mesh" : 0, "name" : "Group1"}], "scene" : 0, "scenes" : [{"nodes" : [0]}]}